<svg width="199" height="35" viewBox="0 0 199 35" fill="none" xmlns="http://www.w3.org/2000/svg">
<path d="M46.2539 18.6396H40.7754L40.7461 15.6221H45.3457C46.1562 15.6221 46.8203 15.5195 47.3379 15.3145C47.8555 15.0996 48.2412 14.792 48.4951 14.3916C48.7588 13.9814 48.8906 13.4834 48.8906 12.8975C48.8906 12.2334 48.7637 11.6963 48.5098 11.2861C48.2656 10.876 47.8799 10.5781 47.3525 10.3926C46.835 10.207 46.166 10.1143 45.3457 10.1143H42.2988V28H37.9043V6.67188H45.3457C46.5859 6.67188 47.6943 6.78906 48.6709 7.02344C49.6572 7.25781 50.4922 7.61426 51.1758 8.09277C51.8594 8.57129 52.3818 9.17676 52.7432 9.90918C53.1045 10.6318 53.2852 11.4912 53.2852 12.4873C53.2852 13.3662 53.085 14.1768 52.6846 14.9189C52.2939 15.6611 51.6738 16.2666 50.8242 16.7354C49.9844 17.2041 48.8857 17.4629 47.5283 17.5117L46.2539 18.6396ZM46.0635 28H39.5742L41.2881 24.5723H46.0635C46.835 24.5723 47.4648 24.4502 47.9531 24.2061C48.4414 23.9521 48.8027 23.6104 49.0371 23.1807C49.2715 22.751 49.3887 22.2578 49.3887 21.7012C49.3887 21.0762 49.2812 20.5342 49.0664 20.0752C48.8613 19.6162 48.5293 19.2646 48.0703 19.0205C47.6113 18.7666 47.0059 18.6396 46.2539 18.6396H42.0205L42.0498 15.6221H47.3232L48.334 16.8086C49.6328 16.7891 50.6777 17.0186 51.4688 17.4971C52.2695 17.9658 52.8506 18.5762 53.2119 19.3281C53.583 20.0801 53.7686 20.8857 53.7686 21.7451C53.7686 23.1123 53.4707 24.2646 52.875 25.2021C52.2793 26.1299 51.4053 26.8281 50.2529 27.2969C49.1104 27.7656 47.7139 28 46.0635 28ZM66.1758 24.2061V12.1504H70.3945V28H66.4248L66.1758 24.2061ZM66.6445 20.9541L67.8896 20.9248C67.8896 21.9795 67.7676 22.9609 67.5234 23.8691C67.2793 24.7676 66.9131 25.5488 66.4248 26.2129C65.9365 26.8672 65.3213 27.3799 64.5791 27.751C63.8369 28.1123 62.9629 28.293 61.957 28.293C61.1855 28.293 60.4727 28.1855 59.8184 27.9707C59.1738 27.7461 58.6172 27.3994 58.1484 26.9307C57.6895 26.4521 57.3281 25.8418 57.0645 25.0996C56.8105 24.3477 56.6836 23.4443 56.6836 22.3896V12.1504H60.9023V22.4189C60.9023 22.8877 60.9561 23.2832 61.0635 23.6055C61.1807 23.9277 61.3418 24.1914 61.5469 24.3965C61.752 24.6016 61.9912 24.748 62.2646 24.8359C62.5479 24.9238 62.8604 24.9678 63.2021 24.9678C64.0713 24.9678 64.7549 24.792 65.2529 24.4404C65.7607 24.0889 66.1172 23.6104 66.3223 23.0049C66.5371 22.3896 66.6445 21.7061 66.6445 20.9541ZM83.6514 12.1504H87.4746V27.4727C87.4746 28.918 87.1523 30.1436 86.5078 31.1494C85.873 32.165 84.9844 32.9316 83.8418 33.4492C82.6992 33.9766 81.3711 34.2402 79.8574 34.2402C79.1934 34.2402 78.4902 34.1523 77.748 33.9766C77.0156 33.8008 76.3125 33.5273 75.6387 33.1562C74.9746 32.7852 74.418 32.3164 73.9688 31.75L75.8291 29.2598C76.3174 29.8262 76.8838 30.2656 77.5283 30.5781C78.1729 30.9004 78.8857 31.0615 79.667 31.0615C80.4287 31.0615 81.0732 30.9199 81.6006 30.6367C82.1279 30.3633 82.5332 29.958 82.8164 29.4209C83.0996 28.8936 83.2412 28.2539 83.2412 27.502V15.8125L83.6514 12.1504ZM72.9873 20.2656V19.958C72.9873 18.7471 73.1338 17.6484 73.4268 16.6621C73.7295 15.666 74.1543 14.8115 74.7012 14.0986C75.2578 13.3857 75.9316 12.834 76.7227 12.4434C77.5137 12.0527 78.4072 11.8574 79.4033 11.8574C80.458 11.8574 81.3418 12.0527 82.0547 12.4434C82.7676 12.834 83.3535 13.3906 83.8125 14.1133C84.2715 14.8262 84.6279 15.6709 84.8818 16.6475C85.1455 17.6143 85.3506 18.6738 85.4971 19.8262V20.5C85.3506 21.6035 85.1309 22.6289 84.8379 23.5762C84.5449 24.5234 84.1592 25.3535 83.6807 26.0664C83.2021 26.7695 82.6064 27.3164 81.8936 27.707C81.1904 28.0977 80.3506 28.293 79.374 28.293C78.3975 28.293 77.5137 28.0928 76.7227 27.6924C75.9414 27.292 75.2725 26.7305 74.7158 26.0078C74.1592 25.2852 73.7295 24.4355 73.4268 23.459C73.1338 22.4824 72.9873 21.418 72.9873 20.2656ZM77.2061 19.958V20.2656C77.2061 20.9199 77.2695 21.5303 77.3965 22.0967C77.5234 22.6631 77.7188 23.166 77.9824 23.6055C78.2559 24.0352 78.5928 24.3721 78.9932 24.6162C79.4033 24.8506 79.8867 24.9678 80.4434 24.9678C81.2148 24.9678 81.8447 24.8066 82.333 24.4844C82.8213 24.1523 83.1875 23.6982 83.4316 23.1221C83.6758 22.5459 83.8174 21.8818 83.8564 21.1299V19.2109C83.8369 18.5957 83.7539 18.0439 83.6074 17.5557C83.4609 17.0576 83.2559 16.6328 82.9922 16.2812C82.7285 15.9297 82.3867 15.6562 81.9668 15.4609C81.5469 15.2656 81.0488 15.168 80.4727 15.168C79.916 15.168 79.4326 15.2949 79.0225 15.5488C78.6221 15.793 78.2852 16.1299 78.0117 16.5596C77.748 16.9893 77.5479 17.4971 77.4111 18.083C77.2744 18.6592 77.2061 19.2842 77.2061 19.958ZM107.235 6.67188V28H102.855V6.67188H107.235ZM113.798 6.67188V10.1143H96.3955V6.67188H113.798ZM119.232 15.6074V28H115.014V12.1504H118.983L119.232 15.6074ZM124.008 12.0479L123.935 15.959C123.729 15.9297 123.48 15.9053 123.188 15.8857C122.904 15.8564 122.646 15.8418 122.411 15.8418C121.815 15.8418 121.298 15.9199 120.858 16.0762C120.429 16.2227 120.067 16.4424 119.774 16.7354C119.491 17.0283 119.276 17.3848 119.13 17.8047C118.993 18.2246 118.915 18.7031 118.896 19.2402L118.046 18.9766C118.046 17.9512 118.148 17.0088 118.354 16.1494C118.559 15.2803 118.856 14.5234 119.247 13.8789C119.647 13.2344 120.136 12.7363 120.712 12.3848C121.288 12.0332 121.947 11.8574 122.689 11.8574C122.924 11.8574 123.163 11.877 123.407 11.916C123.651 11.9453 123.852 11.9893 124.008 12.0479ZM134.057 24.4258V17.3652C134.057 16.8574 133.974 16.4229 133.808 16.0615C133.642 15.6904 133.383 15.4023 133.031 15.1973C132.689 14.9922 132.245 14.8896 131.698 14.8896C131.229 14.8896 130.824 14.9727 130.482 15.1387C130.141 15.2949 129.877 15.5244 129.691 15.8271C129.506 16.1201 129.413 16.4668 129.413 16.8672H125.194C125.194 16.1934 125.351 15.5537 125.663 14.9482C125.976 14.3428 126.43 13.8105 127.025 13.3516C127.621 12.8828 128.329 12.5166 129.149 12.2529C129.979 11.9893 130.907 11.8574 131.933 11.8574C133.163 11.8574 134.257 12.0625 135.214 12.4727C136.171 12.8828 136.923 13.498 137.47 14.3184C138.026 15.1387 138.305 16.1641 138.305 17.3945V24.1768C138.305 25.0459 138.358 25.7588 138.466 26.3154C138.573 26.8623 138.729 27.3408 138.935 27.751V28H134.672C134.467 27.5703 134.311 27.0332 134.203 26.3887C134.105 25.7344 134.057 25.0801 134.057 24.4258ZM134.613 18.3467L134.643 20.7344H132.284C131.728 20.7344 131.244 20.7979 130.834 20.9248C130.424 21.0518 130.087 21.2324 129.823 21.4668C129.56 21.6914 129.364 21.9551 129.237 22.2578C129.12 22.5605 129.062 22.8926 129.062 23.2539C129.062 23.6152 129.145 23.9424 129.311 24.2354C129.477 24.5186 129.716 24.7432 130.028 24.9092C130.341 25.0654 130.707 25.1436 131.127 25.1436C131.762 25.1436 132.313 25.0166 132.782 24.7627C133.251 24.5088 133.612 24.1963 133.866 23.8252C134.13 23.4541 134.267 23.1025 134.276 22.7705L135.39 24.5576C135.233 24.958 135.019 25.373 134.745 25.8027C134.481 26.2324 134.145 26.6377 133.734 27.0186C133.324 27.3896 132.831 27.6973 132.255 27.9414C131.679 28.1758 130.995 28.293 130.204 28.293C129.198 28.293 128.285 28.0928 127.465 27.6924C126.654 27.2822 126.01 26.7207 125.531 26.0078C125.062 25.2852 124.828 24.4648 124.828 23.5469C124.828 22.7168 124.984 21.9795 125.297 21.335C125.609 20.6904 126.068 20.1484 126.674 19.709C127.289 19.2598 128.056 18.9229 128.974 18.6982C129.892 18.4639 130.956 18.3467 132.167 18.3467H134.613ZM148.104 24.9971C148.622 24.9971 149.081 24.8994 149.481 24.7041C149.882 24.499 150.194 24.2158 150.419 23.8545C150.653 23.4834 150.775 23.0488 150.785 22.5508H154.755C154.745 23.6641 154.447 24.6553 153.861 25.5244C153.275 26.3838 152.489 27.0625 151.503 27.5605C150.517 28.0488 149.413 28.293 148.192 28.293C146.962 28.293 145.888 28.0879 144.97 27.6777C144.062 27.2676 143.305 26.7012 142.699 25.9785C142.094 25.2461 141.64 24.3965 141.337 23.4297C141.034 22.4531 140.883 21.4082 140.883 20.2949V19.8701C140.883 18.7471 141.034 17.7021 141.337 16.7354C141.64 15.7588 142.094 14.9092 142.699 14.1865C143.305 13.4541 144.062 12.8828 144.97 12.4727C145.878 12.0625 146.942 11.8574 148.163 11.8574C149.462 11.8574 150.6 12.1064 151.576 12.6045C152.562 13.1025 153.334 13.8154 153.891 14.7432C154.457 15.6611 154.745 16.75 154.755 18.0098H150.785C150.775 17.4824 150.663 17.0039 150.448 16.5742C150.243 16.1445 149.94 15.8027 149.54 15.5488C149.149 15.2852 148.666 15.1533 148.09 15.1533C147.475 15.1533 146.972 15.2852 146.581 15.5488C146.19 15.8027 145.888 16.1543 145.673 16.6035C145.458 17.043 145.307 17.5459 145.219 18.1123C145.141 18.6689 145.102 19.2549 145.102 19.8701V20.2949C145.102 20.9102 145.141 21.501 145.219 22.0674C145.297 22.6338 145.443 23.1367 145.658 23.5762C145.883 24.0156 146.19 24.3623 146.581 24.6162C146.972 24.8701 147.479 24.9971 148.104 24.9971ZM161.42 5.48535V28H157.201V5.48535H161.42ZM171.41 12.1504L164.525 20.002L160.834 23.7373L159.296 20.6904L162.226 16.9697L166.342 12.1504H171.41ZM167.03 28L162.343 20.6758L165.258 18.127L171.894 28H167.03ZM180.229 28.293C178.998 28.293 177.895 28.0977 176.918 27.707C175.941 27.3066 175.111 26.7549 174.428 26.0518C173.754 25.3486 173.236 24.5332 172.875 23.6055C172.514 22.668 172.333 21.6719 172.333 20.6172V20.0312C172.333 18.8301 172.504 17.7314 172.846 16.7354C173.188 15.7393 173.676 14.875 174.311 14.1426C174.955 13.4102 175.736 12.8486 176.654 12.458C177.572 12.0576 178.607 11.8574 179.76 11.8574C180.883 11.8574 181.879 12.043 182.748 12.4141C183.617 12.7852 184.345 13.3125 184.931 13.9961C185.526 14.6797 185.976 15.5 186.278 16.457C186.581 17.4043 186.732 18.459 186.732 19.6211V21.3789H174.135V18.5664H182.587V18.2441C182.587 17.6582 182.479 17.1357 182.265 16.6768C182.06 16.208 181.747 15.8369 181.327 15.5635C180.907 15.29 180.37 15.1533 179.716 15.1533C179.159 15.1533 178.681 15.2754 178.28 15.5195C177.88 15.7637 177.553 16.1055 177.299 16.5449C177.055 16.9844 176.869 17.502 176.742 18.0977C176.625 18.6836 176.566 19.3281 176.566 20.0312V20.6172C176.566 21.252 176.654 21.8379 176.83 22.375C177.016 22.9121 177.274 23.376 177.606 23.7666C177.948 24.1572 178.358 24.46 178.837 24.6748C179.325 24.8896 179.877 24.9971 180.492 24.9971C181.254 24.9971 181.962 24.8506 182.616 24.5576C183.28 24.2549 183.852 23.8008 184.33 23.1953L186.381 25.4219C186.049 25.9004 185.595 26.3594 185.019 26.7988C184.452 27.2383 183.769 27.5996 182.968 27.8828C182.167 28.1562 181.254 28.293 180.229 28.293ZM193.354 15.6074V28H189.135V12.1504H193.104L193.354 15.6074ZM198.129 12.0479L198.056 15.959C197.851 15.9297 197.602 15.9053 197.309 15.8857C197.025 15.8564 196.767 15.8418 196.532 15.8418C195.937 15.8418 195.419 15.9199 194.979 16.0762C194.55 16.2227 194.188 16.4424 193.896 16.7354C193.612 17.0283 193.397 17.3848 193.251 17.8047C193.114 18.2246 193.036 18.7031 193.017 19.2402L192.167 18.9766C192.167 17.9512 192.27 17.0088 192.475 16.1494C192.68 15.2803 192.978 14.5234 193.368 13.8789C193.769 13.2344 194.257 12.7363 194.833 12.3848C195.409 12.0332 196.068 11.8574 196.811 11.8574C197.045 11.8574 197.284 11.877 197.528 11.916C197.772 11.9453 197.973 11.9893 198.129 12.0479Z" fill="white"/>
<path d="M24.9994 19.1064C24.976 19.9575 24.2564 20.625 23.405 20.625H20.7031V21.4062C20.7031 22.4738 20.4647 23.4855 20.039 24.3918L22.9799 27.3327C23.59 27.9429 23.59 28.9322 22.9799 29.5424C22.3696 30.1526 21.3803 30.1525 20.7701 29.5424L18.0974 26.8697C16.8889 27.8499 15.3491 28.4375 13.6718 28.4375V16.5234C13.6718 16.1999 13.4095 15.9375 13.0859 15.9375H11.914C11.5904 15.9375 11.3281 16.1999 11.3281 16.5234V28.4375C9.6508 28.4375 8.111 27.8499 6.90251 26.8697L4.22985 29.5424C3.6196 30.1526 2.63029 30.1525 2.02009 29.5424C1.40993 28.9322 1.40993 27.9429 2.02009 27.3327L4.96091 24.3918C4.53522 23.4855 4.29685 22.4738 4.29685 21.4062V20.625H1.59499C0.743623 20.625 0.0239451 19.9575 0.000605272 19.1064C-0.0236623 18.2234 0.684931 17.5 1.56247 17.5H4.29685V14.6316L2.02009 12.3548C1.40993 11.7446 1.40993 10.7553 2.02009 10.1451C2.63034 9.53491 3.6196 9.53491 4.22985 10.1451L6.89719 12.8125H18.1027L20.77 10.1452C21.3803 9.53496 22.3696 9.53496 22.9798 10.1452C23.59 10.7554 23.59 11.7447 22.9798 12.3549L20.7031 14.6316V17.5H23.4375C24.315 17.5 25.0236 18.2234 24.9994 19.1064ZM12.5488 5C9.52849 5 7.08005 7.44844 7.08005 10.4688H18.0175C18.0175 7.44844 15.5691 5 12.5488 5Z" fill="white"/>
</svg>
